<svg xmlns="http://www.w3.org/2000/svg" viewBox="0 0 74 74"><defs><style>.cls-1{fill:#d8d8d8;}.cls-2{fill:#4a4a4a;}</style></defs><title>Door Circle</title><g id="Layer_2" data-name="Layer 2"><g id="Layer_1-2" data-name="Layer 1"><circle class="cls-1" cx="37" cy="37" r="37"/><path class="cls-2" d="M45.4,52.63H24.2V21.37H48V19.59a.59.59,0,0,0-.59-.59H22.19a.59.59,0,0,0-.59.59V54.41a.59.59,0,0,0,.59.59H47.41a.59.59,0,0,0,.59-.59V52.63Z"/><path class="cls-2" d="M51.84,22.23H32.47a.56.56,0,0,0-.56.56V51.21a.56.56,0,0,0,.56.56H51.84a.56.56,0,0,0,.56-.56V22.79A.56.56,0,0,0,51.84,22.23ZM50.41,49.35H33.9V24.65H50.41Z"/><path class="cls-2" d="M38.84,37H35.75c-.6,0-.6-1.2,0-1.2h3.09C39.45,35.8,39.45,37,38.84,37Z"/></g></g></svg>